<svg width="32" height="32" viewBox="0 0 32 32" fill="none" xmlns="http://www.w3.org/2000/svg">
<g filter="url(#filter0_d_35_345)">
<path d="M24.5677 27.5201C24.8078 27.5201 25.0447 27.6114 25.2249 27.7855C26.3769 28.8978 28.0572 29.2682 29.551 28.8046C28.5896 26.8019 28.4564 24.5074 29.2014 22.3829C30.1259 19.7397 30.3576 17.0904 29.3054 14.4333C28.381 12.0991 26.5971 10.1598 24.3394 9.05396C24.4783 9.79443 24.5483 10.5489 24.5483 11.3114C24.5484 14.5476 23.3039 17.5915 21.0444 19.8822C18.7846 22.1732 15.7553 23.4614 12.5147 23.5096C11.9126 23.519 11.3133 23.4836 10.7207 23.4055C12.5017 26.5273 15.8606 28.5605 19.5516 28.6152C21.1662 28.6402 22.7166 28.3019 24.1604 27.6124C24.2904 27.5502 24.4296 27.5201 24.5677 27.5201Z" fill="white"/>
<path d="M12.5414 1.00206C6.79267 0.887909 2.01389 5.53854 2.00003 11.286C1.99664 12.6903 2.27074 14.0517 2.8148 15.3328C2.8227 15.3514 2.83005 15.3703 2.8367 15.3894C3.58168 17.5139 3.44855 19.8083 2.48712 21.8111C3.98103 22.2745 5.66117 21.9043 6.81319 20.7919C7.097 20.5177 7.52164 20.4487 7.87774 20.6189C9.32134 21.3084 10.8719 21.6477 12.4864 21.6218C18.1902 21.5371 22.6581 17.0082 22.658 11.3114C22.6581 5.73891 18.1197 1.1142 12.5414 1.00206ZM6.81943 12.8514C5.9935 12.8514 5.32392 12.1829 5.32392 11.3584C5.32392 10.5338 5.9935 9.86537 6.81943 9.86537C7.64536 9.86537 8.31493 10.5338 8.31493 11.3584C8.31486 12.1829 7.64536 12.8514 6.81943 12.8514ZM12.329 12.8514C11.5031 12.8514 10.8335 12.1829 10.8335 11.3584C10.8335 10.5338 11.5031 9.86537 12.329 9.86537C13.155 9.86537 13.8246 10.5338 13.8246 11.3584C13.8246 12.1829 13.155 12.8514 12.329 12.8514ZM17.8387 12.8514C17.0128 12.8514 16.3432 12.1829 16.3432 11.3584C16.3432 10.5338 17.0128 9.86537 17.8387 9.86537C18.6647 9.86537 19.3342 10.5338 19.3342 11.3584C19.3342 12.1829 18.6647 12.8514 17.8387 12.8514Z" fill="white"/>
</g>
<defs>
<filter id="filter0_d_35_345" x="0" y="0" width="32" height="31.9999" filterUnits="userSpaceOnUse" color-interpolation-filters="sRGB">
<feFlood flood-opacity="0" result="BackgroundImageFix"/>
<feColorMatrix in="SourceAlpha" type="matrix" values="0 0 0 0 0 0 0 0 0 0 0 0 0 0 0 0 0 0 127 0" result="hardAlpha"/>
<feOffset dy="1"/>
<feGaussianBlur stdDeviation="1"/>
<feComposite in2="hardAlpha" operator="out"/>
<feColorMatrix type="matrix" values="0 0 0 0 0 0 0 0 0 0 0 0 0 0 0 0 0 0 0.25 0"/>
<feBlend mode="normal" in2="BackgroundImageFix" result="effect1_dropShadow_35_345"/>
<feBlend mode="normal" in="SourceGraphic" in2="effect1_dropShadow_35_345" result="shape"/>
</filter>
</defs>
</svg>
