<svg width="18" height="18" viewBox="0 0 18 18" fill="none" xmlns="http://www.w3.org/2000/svg">
<path fill-rule="evenodd" clip-rule="evenodd" d="M15.5388 1.01705e-05C16.1916 -6.51633e-05 16.8177 0.259234 17.2793 0.720879C18.2402 1.68195 18.2401 3.24008 17.279 4.20104L8.81141 12.6686C8.74086 12.7393 8.6548 12.7926 8.56006 12.8242L4.70297 14.1099C4.63743 14.1315 4.56884 14.1425 4.49984 14.1426C4.43098 14.1426 4.36254 14.1315 4.29719 14.1097C3.96033 13.9975 3.77821 13.6335 3.89042 13.2966L5.17611 9.43956C5.20779 9.34502 5.26078 9.25898 5.33103 9.18821L13.7987 0.721293C14.259 0.257878 14.8857 -0.00187317 15.5388 1.01705e-05ZM8.01299 11.6497L16.37 3.29266C16.5909 3.07254 16.7147 2.77331 16.7139 2.46147C16.713 2.15128 16.5895 1.85405 16.3704 1.63449C15.9117 1.17488 15.1672 1.17412 14.7076 1.63283L6.34736 9.98983L5.51616 12.4835L8.01299 11.6497ZM14.1426 9.64272C14.1426 9.28767 14.4305 8.99986 14.7855 8.99986C15.1405 8.99986 15.4284 9.28767 15.4284 9.64268V16.0712C15.4284 17.1363 14.5649 17.9997 13.4998 17.9997H1.92854C0.863438 17.9997 0 17.1363 0 16.0712V3.21422C0 2.14911 0.863438 1.28568 1.92854 1.28568H9.64272C9.99777 1.28568 10.2856 1.57345 10.2856 1.9285C10.2856 2.28355 9.99777 2.57136 9.64272 2.57136H1.92854C1.5735 2.57136 1.28568 2.85917 1.28568 3.21422V16.0712C1.28568 16.4262 1.5735 16.714 1.92854 16.714H13.4998C13.8548 16.714 14.1426 16.4262 14.1426 16.0712V9.64272Z" fill="white"/>
</svg>
