<svg width="24" height="24" viewBox="0 0 24 24" fill="none" xmlns="http://www.w3.org/2000/svg">
<path fill-rule="evenodd" clip-rule="evenodd" d="M13.7541 23.6165C14.1497 23.8602 14.6036 23.9927 15.068 24L15.3379 23.9887C15.8469 23.9449 16.3318 23.7517 16.7317 23.4333C17.1317 23.1148 17.4289 22.6853 17.5863 22.1984L23.8483 3.52989C24.015 3.05874 24.045 2.54992 23.9349 2.06237C23.8303 1.59903 23.6032 1.17291 23.278 0.828358C23.2563 0.800554 23.2328 0.773952 23.2076 0.74873C23.175 0.716041 23.14 0.686203 23.1031 0.659376C22.7721 0.367678 22.3726 0.16298 21.9408 0.0651746C21.454 -0.0450858 20.946 -0.0149866 20.4756 0.151987L1.84714 6.37859C1.35359 6.53282 0.916358 6.82929 0.590068 7.23097C0.263777 7.63264 0.0628954 8.1217 0.0125192 8.63705C-0.037857 9.15241 0.0645059 9.6712 0.306819 10.1286C0.549133 10.5861 0.920654 10.9618 1.37497 11.209L8.52505 15.0711C8.68864 15.1564 8.82208 15.2901 8.90728 15.4539L12.8196 22.6151C13.0356 23.0269 13.3584 23.3728 13.7541 23.6165ZM20.9651 1.75958C20.9631 1.76042 20.961 1.76127 20.959 1.76212L2.33056 7.98873C2.15297 8.04591 1.99626 8.1545 1.88022 8.30078C1.76417 8.44706 1.69398 8.62449 1.67851 8.81068C1.66173 8.99465 1.69976 9.17947 1.7878 9.3418C1.87584 9.50413 2.00995 9.63668 2.17317 9.72272L9.24192 13.5409L20.9651 1.75958ZM22.198 2.99505L10.435 14.7364L14.2136 21.8156C14.2995 21.9791 14.4319 22.1134 14.594 22.2016C14.756 22.2898 14.9406 22.3279 15.1243 22.311C15.3102 22.2955 15.4873 22.2253 15.6334 22.109C15.7794 21.9928 15.8878 21.8359 15.9449 21.658L22.1956 3.00069C22.1964 2.99881 22.1972 2.99693 22.198 2.99505Z" fill="white"/>
</svg>
