<svg width="18" height="16" viewBox="0 0 18 16" fill="none" xmlns="http://www.w3.org/2000/svg">
<path d="M17.7382 7.18096L15.0506 10.541C14.8281 10.8191 14.5086 10.9627 14.1868 10.9627C13.9323 10.9627 13.6765 10.8729 13.4659 10.6891L10.2503 7.88083C9.77356 7.46448 9.7101 6.72313 10.1086 6.22501C10.507 5.72689 11.2165 5.66054 11.6932 6.07689L13.0118 7.22842C12.6506 4.47731 10.3868 2.35099 7.65621 2.35099C4.67521 2.35103 2.25 4.88514 2.25 8C2.25 11.1149 4.67521 13.649 7.65621 13.649C8.27752 13.649 8.78121 14.1753 8.78121 14.8245C8.78121 15.4737 8.27752 16 7.65621 16C5.61117 16 3.68852 15.1678 2.24247 13.6569C0.796393 12.1459 0 10.1369 0 8C0 5.86314 0.796393 3.85414 2.24247 2.34313C3.68852 0.832154 5.61117 0 7.65621 0C9.70124 0 11.6239 0.832154 13.07 2.34313C14.2132 3.5376 14.9498 5.04343 15.2085 6.67751L16.0118 5.67322C16.4102 5.17509 17.1197 5.10882 17.5964 5.5251C18.0732 5.94149 18.1366 6.68284 17.7382 7.18096Z" fill="white"/>
</svg>
